<?xml version="1.0" encoding="UTF-8"?><svg xmlns="http://www.w3.org/2000/svg" xmlns:xlink="http://www.w3.org/1999/xlink" version="1.1" id="Layer_1" x="0px" y="0px" viewBox="0 0 16 16" xml:space="preserve"><g fill="#0D47A1"><path d="M5.444 9.488a.714.714 0 0 1 .707-.6h1.47c2.889 0 5.15-1.164 5.811-4.531.02-.1.051-.292.051-.292.188-1.246-.001-2.091-.68-2.858C12.057.362 10.707 0 8.98 0H3.968a.717.717 0 0 0-.709.6L1.172 13.731a.428.428 0 0 0 .425.493h3.094l.777-4.89-.024.154z"/><path d="M7.621 9.772H6.303L5.319 16h2.138a.626.626 0 0 0 .62-.526l.025-.132.492-3.091.032-.17a.626.626 0 0 1 .619-.526h.391c2.527 0 4.505-1.018 5.083-3.963.232-1.182.12-2.173-.453-2.889-.718 3.315-3.009 5.069-6.645 5.069z"/></g><metadata><rdf:RDF xmlns:rdf="http://www.w3.org/1999/02/22-rdf-syntax-ns#" xmlns:rdfs="http://www.w3.org/2000/01/rdf-schema#" xmlns:dc="http://purl.org/dc/elements/1.1/"><rdf:Description about="https://iconscout.com/legal#licenses" dc:title="paypal,logo,color,e" dc:description="paypal,logo,color,e" dc:publisher="Iconscout" dc:date="2018-02-17" dc:format="image/svg+xml" dc:language="en"><dc:creator><rdf:Bag><rdf:li>Pixel Icons</rdf:li></rdf:Bag></dc:creator></rdf:Description></rdf:RDF></metadata></svg>